<svg width="149" height="149" viewBox="0 0 149 149" fill="none" xmlns="http://www.w3.org/2000/svg">
<circle cx="74.5" cy="74.5" r="74.5" fill="#F5F6F8" fill-opacity="0.3"/>
<circle cx="74.5" cy="74.5" r="73.5" stroke="#34416C" stroke-opacity="0.85" stroke-width="2"/>
<path d="M64 40C59.5837 39.9968 55.2654 41.3016 51.59 43.75H36.5V96.25H69V102.5H64C63.0054 102.5 62.0516 102.895 61.3483 103.598C60.6451 104.302 60.25 105.255 60.25 106.25C60.25 107.245 60.6451 108.198 61.3483 108.902C62.0516 109.605 63.0054 110 64 110H84C84.9946 110 85.9484 109.605 86.6516 108.902C87.3549 108.198 87.75 107.245 87.75 106.25C87.75 105.255 87.3549 104.302 86.6516 103.598C85.9484 102.895 84.9946 102.5 84 102.5H79V96.25H90.9825L100.25 105.518L107.018 98.75L104.518 96.25H111.5V43.75H76.41C72.7346 41.3016 68.4163 39.9968 64 40ZM84 62.5C84 66.4556 82.827 70.3224 80.6294 73.6114C78.4318 76.9004 75.3082 79.4638 71.6537 80.9776C67.9991 82.4913 63.9778 82.8874 60.0982 82.1157C56.2186 81.344 52.6549 79.4392 49.8579 76.6421C47.0608 73.8451 45.156 70.2814 44.3843 66.4018C43.6126 62.5222 44.0087 58.5009 45.5224 54.8463C47.0362 51.1918 49.5996 48.0682 52.8886 45.8706C56.1776 43.673 60.0444 42.5 64 42.5C69.3024 42.5063 74.3858 44.6154 78.1352 48.3648C81.8846 52.1142 83.9937 57.1976 84 62.5ZM85.25 80.5175L87.2325 82.5L84 85.7325L82.0175 83.75L85.25 80.5175ZM79 83.2325L76.77 81C79.0091 79.4503 80.9502 77.5092 82.5 75.27L84.7325 77.5L79 83.2325ZM84 105C84.3315 105 84.6495 105.132 84.8839 105.366C85.1183 105.601 85.25 105.918 85.25 106.25C85.25 106.582 85.1183 106.899 84.8839 107.134C84.6495 107.368 84.3315 107.5 84 107.5H64C63.6685 107.5 63.3505 107.368 63.1161 107.134C62.8817 106.899 62.75 106.582 62.75 106.25C62.75 105.918 62.8817 105.601 63.1161 105.366C63.3505 105.132 63.6685 105 64 105H84ZM76.5 102.5H71.5V96.25H76.5V102.5ZM39 93.75V46.25H48.48C44.5433 49.9998 42.0992 55.0494 41.6006 60.4633C41.1019 65.8772 42.5825 71.2883 45.7681 75.6941C48.9536 80.0998 53.6281 83.2017 58.9255 84.4248C64.2229 85.6479 69.7841 84.9095 74.5788 82.3463L79 86.7675L80.25 85.5175L88.4825 93.75H39ZM100.25 101.983L85.7675 87.5L89 84.2675L103.482 98.75L100.25 101.983ZM109 46.25V93.75H102.018L87.0175 78.75L88.2675 77.5L83.8462 73.0788C86.164 68.7505 86.996 63.7808 86.2144 58.9337C85.4327 54.0866 83.0808 49.6303 79.52 46.25H109Z" fill="#34416C"/>
<path d="M56.7278 59.47C56.2791 60.2486 55.9301 61.0805 55.689 61.9462L52.7003 61.1963L48.6053 62.5625L49.3953 64.9375L52.8003 63.8037L55.2815 64.4287C55.2715 64.6212 55.2503 64.8125 55.2503 65.0075C55.2528 65.4252 55.2783 65.8425 55.3265 66.2575H52.3753L48.3103 68.9675L49.6978 71.0475L53.1253 68.75H55.8903C56.4283 70.5034 57.4976 72.0464 58.9503 73.166C60.4031 74.2856 62.1676 74.9264 64.0002 75C65.8322 74.9256 67.5959 74.2844 69.0479 73.1649C70.4999 72.0454 71.5686 70.5028 72.1064 68.75H74.8752L78.3102 71.04L79.6977 68.96L75.6252 66.25H72.6739C72.7222 65.835 72.7476 65.4177 72.7502 65C72.7502 64.805 72.7289 64.6138 72.7189 64.4213L75.2002 63.7963L78.6052 64.93L79.3952 62.555L75.3002 61.1987L72.3114 61.9487C72.0704 61.083 71.7214 60.2511 71.2727 59.4725L74.9689 58.5488L76.4364 54.1475L74.0614 53.3575L73.0289 56.4563L69.5702 57.3213C69.384 57.1438 69.1952 56.9625 68.9977 56.8012V55C68.9977 53.6739 68.4709 52.4021 67.5332 51.4645C66.5956 50.5268 65.3238 50 63.9977 50C62.6717 50 61.3999 50.5268 60.4622 51.4645C59.5245 52.4021 58.9978 53.6739 58.9978 55V56.7987C58.7965 56.96 58.6115 57.1412 58.4253 57.3187L54.9665 56.4538L53.934 53.355L51.559 54.145L53.0265 58.5462L56.7278 59.47ZM60.9502 58.47L61.5002 58.095V55C61.5002 54.337 61.7636 53.7011 62.2325 53.2322C62.7013 52.7634 63.3372 52.5 64.0002 52.5C64.6633 52.5 65.2991 52.7634 65.768 53.2322C66.2368 53.7011 66.5002 54.337 66.5002 55V58.095L67.0502 58.47C68.0692 59.2211 68.892 60.2068 69.4491 61.3435C70.0061 62.4802 70.2809 63.7345 70.2502 65C70.2502 69.1362 67.4465 72.5 64.0002 72.5C60.554 72.5 57.7503 69.1362 57.7503 65C57.7187 63.7337 57.9931 62.4784 58.5502 61.3407C59.1073 60.2031 59.9306 59.2166 60.9502 58.465V58.47Z" fill="#34416C"/>
</svg>
