<svg width="148" height="148" viewBox="0 0 148 148" fill="none" xmlns="http://www.w3.org/2000/svg">
<circle cx="74" cy="74" r="74" fill="#F5F6F8" fill-opacity="0.3"/>
<circle cx="74" cy="74" r="73" stroke="#34416C" stroke-opacity="0.85" stroke-width="2"/>
<path d="M109 50.25C108.998 48.593 108.339 47.0044 107.167 45.8328C105.996 44.6611 104.407 44.002 102.75 44H45.25C43.593 44.002 42.0044 44.6611 40.8328 45.8328C39.6611 47.0044 39.002 48.593 39 50.25V96.5H36.5V97.75C36.502 99.407 37.1611 100.996 38.3328 102.167C39.5044 103.339 41.093 103.998 42.75 104H105.25C106.907 103.998 108.496 103.339 109.667 102.167C110.839 100.996 111.498 99.407 111.5 97.75V96.5H109V50.25ZM41.5 50.25C41.5 49.2554 41.8951 48.3016 42.5983 47.5983C43.3016 46.8951 44.2554 46.5 45.25 46.5H102.75C103.745 46.5 104.698 46.8951 105.402 47.5983C106.105 48.3016 106.5 49.2554 106.5 50.25V96.5H41.5V50.25ZM105.25 101.5H42.75C41.9747 101.499 41.2186 101.258 40.5855 100.811C39.9524 100.363 39.4732 99.7306 39.2137 99H108.786C108.527 99.7306 108.048 100.363 107.415 100.811C106.781 101.258 106.025 101.499 105.25 101.5Z" fill="#34416C"/>
<path d="M44 94H104V51.5H44V94ZM46.5 54H101.5V91.5H46.5V54Z" fill="#34416C"/>
<path d="M74 50.25C74.1646 50.2517 74.3279 50.2205 74.4803 50.1583C74.6327 50.096 74.7712 50.004 74.8876 49.8876C75.004 49.7712 75.096 49.6328 75.1583 49.4803C75.2205 49.3279 75.2517 49.1646 75.25 49C75.248 48.8367 75.2141 48.6753 75.15 48.525C75.0896 48.372 75.0005 48.232 74.8875 48.1125C74.6458 47.8895 74.3289 47.7656 74 47.7656C73.6711 47.7656 73.3542 47.8895 73.1125 48.1125C72.9995 48.232 72.9104 48.372 72.85 48.525C72.7859 48.6753 72.752 48.8367 72.75 49C72.7542 49.3311 72.8838 49.6482 73.1125 49.8875C73.3506 50.1182 73.6685 50.2481 74 50.25Z" fill="#34416C"/>
<path d="M54.3663 56.8662L49.7325 61.5L54.3663 66.1337L56.1338 64.3662L53.2675 61.5L56.1338 58.6337L54.3663 56.8662Z" fill="#34416C"/>
<path d="M66.1338 66.1337L70.7675 61.5L66.1338 56.8662L64.3663 58.6337L67.2325 61.5L64.3663 64.3662L66.1338 66.1337Z" fill="#34416C"/>
<path d="M54.3663 79.3662L49.7325 84L54.3663 88.6337L56.1338 86.8662L53.2675 84L56.1338 81.1337L54.3663 79.3662Z" fill="#34416C"/>
<path d="M64.3663 81.1337L67.2325 84L64.3663 86.8662L66.1338 88.6337L70.7675 84L66.1338 79.3662L64.3663 81.1337Z" fill="#34416C"/>
<path d="M62.75 60.25H57.75V62.75H62.75V60.25Z" fill="#34416C"/>
<path d="M60.3163 79.8536L57.8137 87.3534L60.184 88.1443L62.6865 80.6446L60.3163 79.8536Z" fill="#34416C"/>
<path d="M65.25 69H60.25V71.5H65.25V69Z" fill="#34416C"/>
<path d="M96.5 69H67.75V71.5H96.5V69Z" fill="#34416C"/>
<path d="M65.25 74H60.25V76.5H65.25V74Z" fill="#34416C"/>
<path d="M96.5 74H67.75V76.5H96.5V74Z" fill="#34416C"/>
</svg>
