<svg width="140" height="71" viewBox="0 0 140 71" fill="none" xmlns="http://www.w3.org/2000/svg">
<path d="M62.9254 23.1384H67.0371L69.9798 31.7247L72.8822 23.1384H76.7521V35.1511H74.1722V26.2827H74.1319L71.1085 35.1511H68.8108L65.6666 26.2827H65.5859V35.1511H62.9254V23.1384Z" fill="#5D6069"/>
<path d="M82.5166 23.1384H86.0236L90.3369 35.1511H87.4345L86.3461 32.0068H81.9522L80.9041 35.1511H78.0421L82.5166 23.1384ZM85.7414 30.0719L84.2499 25.5571H84.1693L82.6375 30.0719H85.7414Z" fill="#5D6069"/>
<path d="M91.3447 34.99V32.7729C93.4408 33.0954 94.8517 33.2566 95.6176 33.2566C97.23 33.2566 98.0363 32.8535 98.0363 32.007V31.241C98.0363 30.8379 97.9153 30.5558 97.6735 30.3542C97.4316 30.1526 97.0285 30.0317 96.4641 30.0317H95.0533C92.433 30.0317 91.1028 28.9836 91.1028 26.8875V26.0006C91.1028 24.9525 91.5462 24.1866 92.433 23.7029C93.3199 23.2192 94.6905 22.9773 96.5851 22.9773C97.5525 22.9773 98.8022 23.0579 100.334 23.2192V25.3556C98.4797 25.1138 97.1897 25.0332 96.5045 25.0332C95.537 25.0332 94.892 25.1138 94.5292 25.275C94.1664 25.4363 94.0052 25.7184 94.0052 26.0812V26.9278C94.0052 27.5727 94.5292 27.8549 95.5773 27.8549H97.0285C98.3991 27.8549 99.4068 28.0968 100.012 28.6208C100.616 29.1449 100.939 29.9108 100.939 30.9186V31.7248C100.939 33.1357 100.415 34.1031 99.4068 34.6272C98.9231 34.869 98.3588 35.0706 97.7541 35.1915C97.1494 35.3125 96.4238 35.3528 95.6176 35.3528C94.4486 35.3125 93.0377 35.2318 91.3447 34.99Z" fill="#5D6069"/>
<path d="M106.743 35.2722C106.3 35.2319 105.857 35.1109 105.333 34.99C104.768 34.8287 104.284 34.6675 103.922 34.4256C103.559 34.1838 103.236 33.8613 102.995 33.4179C102.753 32.9744 102.591 32.4907 102.591 31.886V26.565C102.591 24.1463 104.446 22.937 108.154 22.937C109.122 22.937 110.371 23.0579 111.944 23.3401V25.5169C110.533 25.1541 109.243 24.9929 108.154 24.9929C107.711 24.9929 107.348 24.9929 107.106 25.0332C106.864 25.0735 106.582 25.1138 106.34 25.2347C105.776 25.4363 105.454 25.8797 105.454 26.565V31.6845C105.454 32.7729 106.461 33.2969 108.437 33.2969C109.283 33.2969 110.492 33.1357 112.024 32.7729V34.9497C110.694 35.2319 109.404 35.3528 108.154 35.3528C107.671 35.3125 107.187 35.3125 106.743 35.2722Z" fill="#5D6069"/>
<path d="M117.144 23.1384H120.651L124.964 35.1511H122.062L120.973 32.0068H116.579L115.531 35.1511H112.669L117.144 23.1384ZM120.328 30.0719L118.796 25.5571H118.716L117.184 30.0719H120.328Z" fill="#5D6069"/>
<path d="M63.0867 49.4616V48.3732C64.296 48.5748 65.1828 48.6554 65.7069 48.6554C66.3922 48.6554 66.8759 48.5748 67.1581 48.4538C67.4403 48.3329 67.6015 48.091 67.6015 47.7282V46.9623C67.6015 46.6398 67.4806 46.398 67.279 46.277C67.0774 46.1561 66.7147 46.0755 66.2309 46.0755H65.3844C64.6185 46.0755 64.0138 45.9142 63.6107 45.5917C63.2076 45.2693 63.006 44.8258 63.006 44.2212V43.5359C63.006 42.3266 64.1347 41.7622 66.3922 41.7622C66.5534 41.7622 67.3193 41.8025 68.6899 41.8831V42.8909C67.7627 42.7297 66.9565 42.6894 66.3115 42.6894C65.5859 42.6894 65.0619 42.77 64.7797 42.8909C64.4975 43.0522 64.3766 43.294 64.3766 43.6165V44.2615C64.3766 44.7855 64.8603 45.0274 65.7875 45.0274H66.6743C68.2868 45.0274 69.0527 45.6321 69.0527 46.8011V47.4461C69.0527 48.212 68.7705 48.7763 68.2465 49.0988C67.7224 49.4213 66.8759 49.5825 65.7472 49.5825C64.8603 49.6228 64.0138 49.5825 63.0867 49.4616Z" fill="#5D6069"/>
<path d="M72.6404 49.5826C72.3179 49.5423 71.9551 49.4213 71.6326 49.2601C71.2698 49.0988 71.0279 48.857 70.8667 48.4942C70.7054 48.1314 70.6248 47.6879 70.6248 47.0833V44.4631C70.6248 43.9793 70.6651 43.5762 70.7861 43.2134C70.907 42.8506 71.0682 42.5685 71.2295 42.3669C71.3907 42.2057 71.6326 42.0444 71.9551 41.9638C72.2776 41.8832 72.6001 41.8025 72.9225 41.7622C73.2853 41.7219 73.6885 41.7219 74.0916 41.7219C74.6156 41.7219 75.059 41.7219 75.3412 41.7622C75.6234 41.8025 75.9056 41.8429 76.228 41.9235C76.5505 42.0041 76.7924 42.1653 76.994 42.3266C77.1552 42.5281 77.3164 42.77 77.4374 43.1328C77.5583 43.4956 77.5986 43.939 77.5986 44.3824V47.0027C77.5986 47.8895 77.3971 48.5345 76.994 48.9376C76.8327 49.0988 76.5908 49.2198 76.2684 49.3407C75.9459 49.4213 75.6234 49.5019 75.3009 49.5423C74.8978 49.5826 74.4947 49.5826 74.0916 49.5826C73.4869 49.6229 72.9629 49.6229 72.6404 49.5826ZM75.0993 48.6957C75.3009 48.6554 75.5024 48.6151 75.6637 48.5345C75.8652 48.4539 75.9862 48.2926 76.0668 48.1314C76.1474 47.9298 76.1877 47.6879 76.1877 47.3251V44.2615C76.1877 43.7778 76.1474 43.4553 76.0265 43.2537C75.9056 43.0522 75.704 42.8909 75.4218 42.8506C75.1396 42.77 74.6962 42.7297 74.1319 42.7297C73.5675 42.7297 73.1241 42.77 72.8419 42.8506C72.5597 42.9313 72.3582 43.0522 72.2373 43.2537C72.1163 43.4553 72.076 43.8181 72.076 44.2615V47.3251C72.076 47.6879 72.1163 47.9298 72.1969 48.1314C72.2776 48.3329 72.3985 48.4539 72.6001 48.5345C72.8016 48.6151 72.9629 48.6957 73.1644 48.6957C73.366 48.736 73.6884 48.736 74.1319 48.736C74.5753 48.736 74.8978 48.6957 75.0993 48.6957Z" fill="#5D6069"/>
<path d="M80.501 42.8102H78.7676V41.883H80.501V40.6737C80.501 39.8675 80.7429 39.2628 81.1863 38.9C81.67 38.5372 82.3553 38.376 83.3228 38.376C83.6856 38.376 84.0887 38.4163 84.5724 38.4566V39.3838C84.1693 39.3434 83.7662 39.3031 83.3631 39.3031C82.8391 39.3031 82.4763 39.3838 82.2344 39.5853C81.9925 39.7869 81.9119 40.1093 81.9119 40.5931V41.9233H84.4515V42.8505H81.9119V49.5018H80.501V42.8102Z" fill="#5D6069"/>
<path d="M87.4345 49.4214C87.0717 49.3004 86.7895 49.0586 86.6283 48.6958C86.467 48.3733 86.3864 47.8895 86.3864 47.2446V42.8104H84.6934V41.8832H86.3864V39.5452H87.7973V41.8832H90.4981V42.8104H87.7973V47.3252C87.7973 47.688 87.8376 47.9702 87.9182 48.1717C87.9989 48.3733 88.1601 48.4942 88.402 48.5748C88.6438 48.6554 88.9663 48.6958 89.3694 48.6958C89.4904 48.6958 89.8935 48.6554 90.4981 48.5748V49.502C89.9741 49.5826 89.4501 49.6229 88.926 49.6229C88.3213 49.6229 87.7973 49.5826 87.4345 49.4214Z" fill="#5D6069"/>
<path d="M91.0625 41.8831H92.5943L94.4486 48.1313H94.5292L96.3029 41.8831H97.8751L99.7294 48.1313H99.81L101.584 41.8831H103.035L100.536 49.4615H98.8425L97.0285 43.3343L95.2145 49.4615H93.5215L91.0625 41.8831Z" fill="#5D6069"/>
<path d="M105.131 49.4213C104.728 49.3004 104.446 49.0585 104.284 48.6957C104.123 48.3329 104.043 47.8492 104.043 47.2042C104.043 46.6398 104.123 46.1964 104.284 45.8739C104.446 45.5514 104.728 45.3096 105.131 45.1886C105.534 45.0677 106.098 44.9871 106.784 44.9871H109.041V43.7778C109.041 43.4956 109.001 43.294 108.88 43.1328C108.759 42.9715 108.598 42.8909 108.316 42.8103C108.074 42.7297 107.671 42.7297 107.187 42.7297C106.421 42.7297 105.534 42.8103 104.567 42.9312V41.8831C105.615 41.8025 106.542 41.7622 107.388 41.7622C108.275 41.7622 108.92 41.8428 109.323 41.9638C109.726 42.0847 110.009 42.3266 110.17 42.6491C110.331 42.9715 110.412 43.4553 110.412 44.1406V49.5019H109.041V48.7763C108.92 49.381 108.154 49.6632 106.743 49.6632C106.098 49.6228 105.534 49.5825 105.131 49.4213ZM107.066 48.6957C107.59 48.6957 107.993 48.6554 108.356 48.5748C108.84 48.4941 109.041 48.2523 109.041 47.9298V45.8739H106.864C106.421 45.8739 106.098 45.9142 105.897 45.9545C105.695 46.0352 105.574 46.1561 105.494 46.3577C105.413 46.5592 105.413 46.8414 105.413 47.2848C105.413 47.6476 105.453 47.9298 105.534 48.1717C105.615 48.3732 105.736 48.5345 105.937 48.6151C106.139 48.6957 106.421 48.736 106.784 48.736H107.066V48.6957Z" fill="#5D6069"/>
<path d="M112.911 41.8832H114.241V43.1328C114.241 42.8909 114.362 42.6491 114.564 42.4475C114.765 42.246 115.047 42.0444 115.37 41.9235C115.692 41.8025 116.015 41.7219 116.337 41.7219H117.023V42.9313H116.257C115.572 42.9313 115.088 43.0119 114.806 43.1731C114.523 43.3344 114.362 43.6569 114.362 44.1003V49.4213H112.951V41.8832H112.911Z" fill="#5D6069"/>
<path d="M118.111 47.3251V44.3421C118.111 43.415 118.393 42.77 118.917 42.3669C119.441 41.9638 120.288 41.7622 121.497 41.7622C122.626 41.7622 123.432 41.9638 123.916 42.3266C124.4 42.7297 124.642 43.3746 124.642 44.3421V46.0352H119.562V47.1639C119.562 47.6879 119.764 48.0507 120.127 48.2926C120.489 48.5345 121.054 48.6554 121.82 48.6554C122.545 48.6554 123.392 48.5345 124.359 48.2926V49.381C123.392 49.5825 122.465 49.7035 121.618 49.7035C119.28 49.6228 118.111 48.8569 118.111 47.3251ZM123.231 45.0677V43.8584C123.231 43.415 123.11 43.0925 122.828 42.9312C122.545 42.77 122.062 42.6894 121.417 42.6894C120.772 42.6894 120.288 42.77 120.006 42.9312C119.724 43.0925 119.562 43.415 119.562 43.8584V45.0677H123.231Z" fill="#5D6069"/>
<path opacity="0.8" d="M30.3542 30.3543C30.3542 30.2334 27.6936 30.5156 27.5324 30.5156C25.5571 30.7978 23.5819 31.3218 21.8888 32.3699C19.0671 34.063 17.1725 37.6103 17.9787 40.9158C18.3415 42.4476 19.2283 44.0198 20.1555 45.3097C22.5741 48.7765 26.2021 51.1145 30.1526 52.4448C34.869 53.9766 39.9079 54.1781 44.8258 53.8153C44.7855 53.8153 32.8534 51.8401 30.3542 30.3543Z" fill="#5D6069"/>
<path opacity="0.9" d="M45.7127 32.9744C45.8336 33.0147 46.922 30.596 46.9623 30.4348C47.7282 28.6208 48.2119 26.6052 48.1716 24.63C48.091 21.3245 45.9948 17.8981 42.7296 16.9709C41.1978 16.5275 39.4241 16.4872 37.8117 16.6484C33.6194 17.0112 29.7495 18.9865 26.6456 21.7679C22.9773 25.0331 20.2764 29.3061 18.14 33.7403C18.14 33.7403 25.8393 24.3881 45.7127 32.9744Z" fill="#5D6069"/>
<path d="M36.4008 45.1482C36.2799 45.2288 37.8923 47.3653 38.0133 47.4862C39.2226 49.0583 40.7141 50.4692 42.4878 51.3964C45.3902 52.9685 49.4213 52.7669 51.8399 50.3886C52.9686 49.2599 53.8555 47.7281 54.5408 46.2769C56.2741 42.4473 56.4757 38.0938 55.5485 34.0223C54.5004 29.185 52.0818 24.7105 49.26 20.7197C49.2197 20.76 53.6136 32.0471 36.4008 45.1482Z" fill="#5D6069"/>
</svg>
