<svg width="149" height="149" viewBox="0 0 149 149" fill="none" xmlns="http://www.w3.org/2000/svg">
<circle cx="74.5" cy="74.5" r="74.5" fill="#F5F6F8" fill-opacity="0.3"/>
<circle cx="74.5" cy="74.5" r="73.5" stroke="#34416C" stroke-opacity="0.85" stroke-width="2"/>
<path d="M53.25 58.25C53.25 57.9185 53.3817 57.6005 53.6161 57.3661C53.8505 57.1317 54.1685 57 54.5 57C54.8315 57 55.1495 57.1317 55.3839 57.3661C55.6183 57.6005 55.75 57.9185 55.75 58.25V59.5H58.25V58.25C58.25 57.2554 57.8549 56.3016 57.1517 55.5983C56.4484 54.8951 55.4946 54.5 54.5 54.5C53.5054 54.5 52.5516 54.8951 51.8483 55.5983C51.1451 56.3016 50.75 57.2554 50.75 58.25V59.5H53.25V58.25Z" fill="#34416C"/>
<path d="M65.75 58.25C65.75 57.9185 65.8817 57.6005 66.1161 57.3661C66.3505 57.1317 66.6685 57 67 57C67.3315 57 67.6495 57.1317 67.8839 57.3661C68.1183 57.6005 68.25 57.9185 68.25 58.25V59.5H70.75V58.25C70.75 57.2554 70.3549 56.3016 69.6517 55.5983C68.9484 54.8951 67.9946 54.5 67 54.5C66.0054 54.5 65.0516 54.8951 64.3483 55.5983C63.6451 56.3016 63.25 57.2554 63.25 58.25V59.5H65.75V58.25Z" fill="#34416C"/>
<path d="M58.25 63.25H55.75V64.5C55.75 65.8261 56.2768 67.0979 57.2145 68.0355C58.1521 68.9732 59.4239 69.5 60.75 69.5C62.0761 69.5 63.3479 68.9732 64.2855 68.0355C65.2232 67.0979 65.75 65.8261 65.75 64.5V63.25H63.25V64.5C63.25 65.163 62.9866 65.7989 62.5178 66.2678C62.0489 66.7366 61.413 67 60.75 67C60.087 67 59.4511 66.7366 58.9822 66.2678C58.5134 65.7989 58.25 65.163 58.25 64.5V63.25Z" fill="#34416C"/>
<path d="M112 83.25C111.998 81.593 111.339 80.0044 110.167 78.8328C108.996 77.6611 107.407 77.002 105.75 77H79.3575C77.726 75.4015 75.5341 74.5042 73.25 74.5H67V73.125C67.7024 72.8024 68.379 72.4263 69.0238 72H80.75V54.5C80.75 49.1957 78.6429 44.1086 74.8921 40.3579C71.1414 36.6071 66.0543 34.5 60.75 34.5C55.4457 34.5 50.3586 36.6071 46.6079 40.3579C42.8571 44.1086 40.75 49.1957 40.75 54.5V72H52.4762C53.121 72.4263 53.7976 72.8024 54.5 73.125V74.5H48.25C45.9302 74.5026 43.7061 75.4254 42.0657 77.0657C40.4254 78.7061 39.5026 80.9302 39.5 83.25V108.25C39.5 108.582 39.6317 108.899 39.8661 109.134C40.1005 109.368 40.4185 109.5 40.75 109.5H110.75C111.745 109.5 112.698 109.105 113.402 108.402C114.105 107.698 114.5 106.745 114.5 105.75V102H112V83.25ZM109.5 83.25V102H74.5V83.25C74.5 82.2554 74.8951 81.3016 75.5984 80.5984C76.3016 79.8951 77.2554 79.5 78.25 79.5H105.75C106.745 79.5 107.698 79.8951 108.402 80.5984C109.105 81.3016 109.5 82.2554 109.5 83.25ZM48.25 52H73.25V59.5C73.25 62.8152 71.933 65.9946 69.5888 68.3388C67.2446 70.683 64.0652 72 60.75 72C57.4348 72 54.2554 70.683 51.9112 68.3388C49.567 65.9946 48.25 62.8152 48.25 59.5V52ZM75.75 57H77C77.3315 57 77.6495 57.1317 77.8839 57.3661C78.1183 57.6005 78.25 57.9185 78.25 58.25C78.25 58.5815 78.1183 58.8995 77.8839 59.1339C77.6495 59.3683 77.3315 59.5 77 59.5H75.75V57ZM71.8988 69.5C73.7943 67.3946 75.0516 64.7933 75.5238 62H77C77.4268 61.9959 77.8497 61.918 78.25 61.77V69.5H71.8988ZM60.75 37C65.3898 37.005 69.8381 38.8503 73.1189 42.1311C76.3997 45.4119 78.245 49.8602 78.25 54.5V54.73C77.8497 54.582 77.4268 54.5041 77 54.5H75.75V50.75C75.75 50.4185 75.6183 50.1005 75.3839 49.8661C75.1495 49.6317 74.8315 49.5 74.5 49.5H47C46.6685 49.5 46.3505 49.6317 46.1161 49.8661C45.8817 50.1005 45.75 50.4185 45.75 50.75V54.5H44.5C44.0732 54.5041 43.6503 54.582 43.25 54.73V54.5C43.255 49.8602 45.1003 45.4119 48.3811 42.1311C51.6619 38.8503 56.1102 37.005 60.75 37ZM45.75 59.5H44.5C44.1685 59.5 43.8505 59.3683 43.6161 59.1339C43.3817 58.8995 43.25 58.5815 43.25 58.25C43.25 57.9185 43.3817 57.6005 43.6161 57.3661C43.8505 57.1317 44.1685 57 44.5 57H45.75V59.5ZM43.25 61.77C43.6503 61.918 44.0732 61.9959 44.5 62H45.9763C46.4484 64.7933 47.7057 67.3946 49.6013 69.5H43.25V61.77ZM60.75 74.5C62.0162 74.4932 63.2763 74.3252 64.5 74V75.75C64.5 76.7446 64.1049 77.6984 63.4017 78.4016C62.6984 79.1049 61.7446 79.5 60.75 79.5C59.7554 79.5 58.8016 79.1049 58.0983 78.4016C57.3951 77.6984 57 76.7446 57 75.75V74C58.2237 74.3252 59.4838 74.4932 60.75 74.5ZM42 83.25C42.002 81.593 42.6611 80.0044 43.8328 78.8328C45.0044 77.6611 46.593 77.002 48.25 77H54.625C54.9119 78.4129 55.6784 79.6831 56.7947 80.5955C57.9109 81.5079 59.3083 82.0063 60.75 82.0063C62.1917 82.0063 63.5891 81.5079 64.7053 80.5955C65.8216 79.6831 66.5881 78.4129 66.875 77H73.25C74.1108 77.0018 74.9619 77.1814 75.75 77.5275C74.6363 78.0136 73.6885 78.8137 73.0224 79.8301C72.3564 80.8464 72.0011 82.0349 72 83.25V102H69.5V105.75C69.5041 106.177 69.582 106.6 69.73 107H52V90.75H49.5V107H42V83.25ZM112 105.75C112 106.082 111.868 106.399 111.634 106.634C111.399 106.868 111.082 107 110.75 107H73.25C72.9185 107 72.6005 106.868 72.3661 106.634C72.1317 106.399 72 106.082 72 105.75V104.5H112V105.75Z" fill="#34416C"/>
<path d="M87.8837 93.6162L85.0175 90.75L87.8837 87.8837L86.1162 86.1162L81.4825 90.75L86.1162 95.3837L87.8837 93.6162Z" fill="#34416C"/>
<path d="M97.8837 95.3837L102.517 90.75L97.8837 86.1162L96.1162 87.8837L98.9825 90.75L96.1162 93.6162L97.8837 95.3837Z" fill="#34416C"/>
<path d="M92.0656 86.6038L89.5642 94.1039L91.9358 94.8948L94.4372 87.3947L92.0656 86.6038Z" fill="#34416C"/>
</svg>
