<svg width="149" height="149" viewBox="0 0 149 149" fill="none" xmlns="http://www.w3.org/2000/svg">
<circle cx="74.5" cy="74.5" r="74.5" fill="#F5F6F8" fill-opacity="0.3"/>
<circle cx="74.5" cy="74.5" r="73.5" stroke="#34416C" stroke-opacity="0.85" stroke-width="2"/>
<path d="M107.75 37.5H40.25C39.2554 37.5 38.3016 37.8951 37.5983 38.5983C36.8951 39.3016 36.5 40.2554 36.5 41.25V108.75C36.5 109.745 36.8951 110.698 37.5983 111.402C38.3016 112.105 39.2554 112.5 40.25 112.5H107.75C108.745 112.5 109.698 112.105 110.402 111.402C111.105 110.698 111.5 109.745 111.5 108.75V41.25C111.5 40.2554 111.105 39.3016 110.402 38.5983C109.698 37.8951 108.745 37.5 107.75 37.5ZM109 108.75C109 109.082 108.868 109.399 108.634 109.634C108.399 109.868 108.082 110 107.75 110H40.25C39.9185 110 39.6005 109.868 39.3661 109.634C39.1317 109.399 39 109.082 39 108.75V50H109V108.75ZM39 47.5V41.25C39 40.9185 39.1317 40.6005 39.3661 40.3661C39.6005 40.1317 39.9185 40 40.25 40H107.75C108.082 40 108.399 40.1317 108.634 40.3661C108.868 40.6005 109 40.9185 109 41.25V47.5H39Z" fill="#34416C"/>
<path d="M42.275 42.6C42.1199 42.6561 41.979 42.7457 41.8624 42.8623C41.7457 42.979 41.6561 43.1199 41.6 43.275C41.534 43.4246 41.4999 43.5864 41.4999 43.75C41.4999 43.9135 41.534 44.0753 41.6 44.225C41.6604 44.3779 41.7495 44.518 41.8625 44.6375C41.9841 44.7478 42.1236 44.8366 42.275 44.9C42.4253 44.964 42.5867 44.998 42.75 45C42.8297 44.9978 42.9091 44.9895 42.9875 44.975C43.0703 44.9634 43.1506 44.938 43.225 44.9C43.3047 44.8727 43.3803 44.8348 43.45 44.7875C43.5155 44.7413 43.5781 44.6912 43.6375 44.6375C43.8699 44.4005 44.0001 44.0819 44.0001 43.75C44.0001 43.4181 43.8699 43.0994 43.6375 42.8625C43.4602 42.6914 43.2371 42.5755 42.9952 42.5289C42.7533 42.4823 42.5031 42.507 42.275 42.6Z" fill="#34416C"/>
<path d="M48.225 42.6C48.0759 42.532 47.9139 42.4968 47.75 42.4968C47.5861 42.4968 47.4241 42.532 47.275 42.6C47.1199 42.6561 46.979 42.7457 46.8624 42.8624C46.7457 42.979 46.6561 43.1199 46.6 43.275C46.534 43.4247 46.4999 43.5864 46.4999 43.75C46.4999 43.9136 46.534 44.0753 46.6 44.225C46.6604 44.378 46.7495 44.518 46.8625 44.6375C46.9841 44.7478 47.1236 44.8366 47.275 44.9C47.4247 44.9659 47.5864 44.9999 47.75 44.9999C47.9135 44.9999 48.0753 44.9659 48.225 44.9C48.378 44.8396 48.518 44.7505 48.6375 44.6375C48.8699 44.4005 49.0001 44.0819 49.0001 43.75C49.0001 43.4181 48.8699 43.0995 48.6375 42.8625C48.518 42.7495 48.378 42.6604 48.225 42.6Z" fill="#34416C"/>
<path d="M53.6375 42.8624C53.4617 42.689 53.2385 42.5715 52.996 42.5248C52.7535 42.4781 52.5026 42.5042 52.275 42.5999C52.1236 42.6633 51.9841 42.7521 51.8625 42.8624C51.7495 42.9819 51.6604 43.122 51.6 43.2749C51.534 43.4246 51.4999 43.5864 51.4999 43.7499C51.4999 43.9135 51.534 44.0753 51.6 44.2249C51.6604 44.3779 51.7495 44.5179 51.8625 44.6374C51.9841 44.7477 52.1236 44.8365 52.275 44.8999C52.4253 44.964 52.5867 44.998 52.75 44.9999C53.0809 44.9951 53.3978 44.8656 53.6375 44.6374C53.7505 44.5179 53.8396 44.3779 53.9 44.2249C53.9659 44.0752 53.9999 43.9135 53.9999 43.7499C53.9999 43.5864 53.9659 43.4246 53.9 43.2749C53.8396 43.122 53.7505 42.9819 53.6375 42.8624Z" fill="#34416C"/>
<path d="M45.25 107.5H102.75C103.745 107.5 104.698 107.105 105.402 106.402C106.105 105.698 106.5 104.745 106.5 103.75V56.25C106.5 55.2554 106.105 54.3016 105.402 53.5983C104.698 52.8951 103.745 52.5 102.75 52.5H65.25C64.2554 52.5 63.3016 52.8951 62.5983 53.5983C61.8951 54.3016 61.5 55.2554 61.5 56.25V70H45.25C44.2554 70 43.3016 70.3951 42.5983 71.0983C41.8951 71.8016 41.5 72.7554 41.5 73.75V103.75C41.5 104.745 41.8951 105.698 42.5983 106.402C43.3016 107.105 44.2554 107.5 45.25 107.5ZM44 103.75V102.5H64V103.75C64 104.082 63.8683 104.399 63.6339 104.634C63.3995 104.868 63.0815 105 62.75 105H45.25C44.9185 105 44.6005 104.868 44.3661 104.634C44.1317 104.399 44 104.082 44 103.75ZM44 77.5H64V100H44V77.5ZM104 97.5H66.5V73.75C66.4968 72.9772 66.2549 72.2242 65.8074 71.5941C65.3599 70.964 64.7286 70.4876 64 70.23V62.5H104V97.5ZM84 103.75C83.7528 103.75 83.5111 103.677 83.3055 103.539C83.1 103.402 82.9398 103.207 82.8452 102.978C82.7505 102.75 82.7258 102.499 82.774 102.256C82.8223 102.014 82.9413 101.791 83.1161 101.616C83.2909 101.441 83.5137 101.322 83.7561 101.274C83.9986 101.226 84.2499 101.251 84.4784 101.345C84.7068 101.44 84.902 101.6 85.0393 101.806C85.1767 102.011 85.25 102.253 85.25 102.5C85.25 102.832 85.1183 103.149 84.8839 103.384C84.6495 103.618 84.3315 103.75 84 103.75ZM81.225 105H66.27C66.418 104.6 66.4959 104.177 66.5 103.75V100H81.225C80.598 100.682 80.25 101.574 80.25 102.5C80.25 103.426 80.598 104.318 81.225 105ZM102.75 105H86.775C87.402 104.318 87.75 103.426 87.75 102.5C87.75 101.574 87.402 100.682 86.775 100H104V103.75C104 104.082 103.868 104.399 103.634 104.634C103.399 104.868 103.082 105 102.75 105ZM65.25 55H102.75C103.082 55 103.399 55.1317 103.634 55.3661C103.868 55.6005 104 55.9185 104 56.25V60H64V56.25C64 55.9185 64.1317 55.6005 64.3661 55.3661C64.6005 55.1317 64.9185 55 65.25 55ZM45.25 72.5H62.75C63.0815 72.5 63.3995 72.6317 63.6339 72.8661C63.8683 73.1005 64 73.4185 64 73.75V75H44V73.75C44 73.4185 44.1317 73.1005 44.3661 72.8661C44.6005 72.6317 44.9185 72.5 45.25 72.5Z" fill="#34416C"/>
<path d="M84 58.75C84.3309 58.7452 84.6478 58.6157 84.8875 58.3875C85.1177 58.1492 85.2475 57.8314 85.25 57.5C85.248 57.3367 85.214 57.1753 85.15 57.025C85.0926 56.8705 85.0032 56.7299 84.8875 56.6125C84.6458 56.3895 84.3289 56.2656 84 56.2656C83.6711 56.2656 83.3542 56.3895 83.1125 56.6125C82.9968 56.7299 82.9074 56.8705 82.85 57.025C82.786 57.1753 82.752 57.3367 82.75 57.5C82.7525 57.8314 82.8823 58.1492 83.1125 58.3875C83.3522 58.6157 83.6691 58.7452 84 58.75Z" fill="#34416C"/>
</svg>
