<svg width="148" height="51" viewBox="0 0 148 51" fill="none" xmlns="http://www.w3.org/2000/svg">
<path d="M60.513 8.66064H66.3113L70.4611 20.8332L74.5541 8.66064H80.0114V25.6908H76.3163V13.1182H76.2595L71.996 25.6908H68.7557L64.3217 13.1182H64.208V25.6908H60.4561V8.66064H60.513Z" fill="#323152"/>
<path d="M88.1403 8.66064H93.086L99.1686 25.6908H95.0756L93.5407 21.2332H87.3445L85.8664 25.6908H81.8303L88.1403 8.66064ZM92.688 18.433L90.5279 12.0324H90.4142L88.3108 18.433H92.688Z" fill="#323152"/>
<path d="M100.533 25.405V22.2619C103.489 22.719 105.479 22.9476 106.559 22.9476C108.833 22.9476 109.97 22.3762 109.97 21.176V20.0902C109.97 19.5188 109.799 19.1187 109.458 18.833C109.117 18.5472 108.548 18.3758 107.753 18.3758H105.763C102.068 18.3758 100.192 16.8899 100.192 13.9182V12.661C100.192 11.1751 100.817 10.0893 102.068 9.40354C103.318 8.71776 105.251 8.37487 107.923 8.37487C109.287 8.37487 111.05 8.48917 113.21 8.71776V11.7466C110.595 11.4037 108.776 11.2894 107.809 11.2894C106.445 11.2894 105.535 11.4037 105.024 11.6323C104.512 11.8609 104.285 12.2609 104.285 12.7753V13.9754C104.285 14.8898 105.024 15.2898 106.502 15.2898H108.548C110.481 15.2898 111.902 15.6327 112.755 16.3756C113.608 17.1185 114.062 18.2043 114.062 19.633V20.776C114.062 22.7762 113.323 24.1477 111.902 24.8907C111.22 25.2336 110.424 25.5193 109.572 25.6907C108.719 25.8622 107.696 25.9193 106.559 25.9193C104.91 25.9193 102.921 25.7479 100.533 25.405Z" fill="#323152"/>
<path d="M122.305 25.805C121.679 25.7479 121.054 25.5764 120.315 25.405C119.519 25.1764 118.837 24.9478 118.326 24.6049C117.814 24.262 117.359 23.8049 117.018 23.1762C116.677 22.5476 116.45 21.8618 116.45 21.0046V13.5182C116.45 10.0893 119.065 8.37487 124.294 8.37487C125.659 8.37487 127.421 8.54631 129.638 8.94635V12.0323C127.648 11.518 125.829 11.2894 124.294 11.2894C123.669 11.2894 123.158 11.2894 122.816 11.3466C122.475 11.4037 122.077 11.4609 121.736 11.6323C120.94 11.9181 120.486 12.5467 120.486 13.5182V20.776C120.486 22.319 121.907 23.0619 124.692 23.0619C125.886 23.0619 127.592 22.8333 129.752 22.319V25.3479C127.876 25.7479 126.057 25.9193 124.294 25.9193C123.612 25.9193 122.93 25.8622 122.305 25.805Z" fill="#323152"/>
<path d="M136.915 8.66064H141.861L148 25.6336H143.907L142.372 21.1761H136.176L134.698 25.6336H130.662L136.915 8.66064ZM141.463 18.433L139.302 12.0324H139.189L137.029 18.433H141.463Z" fill="#323152"/>
<path d="M60.6834 45.9213V44.3783C62.3888 44.664 63.6394 44.7783 64.3784 44.7783C65.3448 44.7783 66.0269 44.664 66.4249 44.4926C66.8228 44.3211 67.0502 43.9783 67.0502 43.4639V42.3781C67.0502 41.9209 66.8796 41.578 66.5954 41.4066C66.3112 41.2351 65.7996 41.1208 65.1174 41.1208H63.8668C62.7867 41.1208 61.934 40.8923 61.3655 40.4351C60.7971 39.9779 60.5128 39.3493 60.5128 38.492V37.5205C60.5128 35.8061 62.1045 35.006 65.2879 35.006C65.5153 35.006 66.5954 35.0631 68.5282 35.1774V36.6061C67.2207 36.3776 66.0838 36.3204 65.1742 36.3204C64.151 36.3204 63.412 36.4347 63.0141 36.6061C62.6161 36.8347 62.4456 37.1776 62.4456 37.6348V38.5492C62.4456 39.2921 63.1278 39.635 64.4352 39.635H65.6859C67.9597 39.635 69.0398 40.4922 69.0398 42.1495V43.0639C69.0398 44.1497 68.6419 44.9498 67.9029 45.407C67.1639 45.8641 65.9701 46.0927 64.3784 46.0927C63.2415 46.207 62.0477 46.0927 60.6834 45.9213Z" fill="#323152"/>
<path d="M74.2129 46.0926C73.7581 46.0355 73.2465 45.864 72.7917 45.6354C72.2801 45.4068 71.939 45.064 71.7116 44.5496C71.4842 44.0353 71.3705 43.4067 71.3705 42.5494V38.8348C71.3705 38.149 71.4274 37.5776 71.5979 37.0632C71.7685 36.5489 71.9959 36.1489 72.2232 35.8631C72.4506 35.6345 72.7917 35.4059 73.2465 35.2916C73.7013 35.1773 74.156 35.063 74.6108 35.0059C75.1224 34.9487 75.6909 34.9487 76.2594 34.9487C76.9984 34.9487 77.6237 34.9487 78.0216 35.0059C78.4195 35.063 78.8175 35.1202 79.2722 35.2345C79.727 35.3488 80.0681 35.5774 80.3523 35.806C80.5797 36.0917 80.8071 36.4346 80.9776 36.9489C81.1482 37.4633 81.205 38.0919 81.205 38.7205V42.4351C81.205 43.6924 80.9208 44.6068 80.3523 45.1783C80.1249 45.4068 79.7838 45.5783 79.3291 45.7497C78.8743 45.864 78.4195 45.9783 77.9648 46.0355C77.3963 46.0926 76.8278 46.0926 76.2594 46.0926C75.3498 46.2069 74.6677 46.1498 74.2129 46.0926ZM77.6805 44.8354C77.9648 44.7782 78.249 44.7211 78.4764 44.6068C78.7606 44.4925 78.9311 44.2639 79.0448 44.0353C79.1585 43.7496 79.2154 43.4067 79.2154 42.8923V38.4919C79.2154 37.8061 79.1585 37.349 78.988 37.0632C78.8175 36.7775 78.5332 36.5489 78.1353 36.4917C77.7374 36.3774 77.1121 36.3203 76.3162 36.3203C75.5203 36.3203 74.895 36.3774 74.4971 36.4917C74.0992 36.606 73.815 36.7775 73.6444 37.0632C73.4739 37.349 73.417 37.8633 73.417 38.4919V42.8352C73.417 43.3495 73.4739 43.6924 73.5876 43.9781C73.7013 44.2639 73.8718 44.4353 74.156 44.5496C74.4403 44.6639 74.6677 44.7782 74.9519 44.7782C75.2361 44.8354 75.6909 44.8354 76.3162 44.8354C76.9415 44.8925 77.3963 44.8925 77.6805 44.8354Z" fill="#323152"/>
<path d="M85.2977 36.549H82.8533V35.2346H85.2977V33.5201C85.2977 32.3772 85.6388 31.5199 86.2641 31.0056C86.9463 30.4913 87.9127 30.2627 89.277 30.2627C89.7886 30.2627 90.3571 30.3198 91.0392 30.377V31.6914C90.4708 31.6342 89.9023 31.5771 89.3338 31.5771C88.5948 31.5771 88.0832 31.6914 87.7421 31.9771C87.4011 32.2629 87.2874 32.72 87.2874 33.4058V35.2917H90.8687V36.6061H87.2874V46.0355H85.2977V36.549Z" fill="#323152"/>
<path d="M95.0753 45.8641C94.5637 45.6927 94.1657 45.3498 93.9383 44.8355C93.711 44.3783 93.5973 43.6925 93.5973 42.7781V36.4918H91.2097V35.1774H93.5973V31.8628H95.5869V35.1774H99.3956V36.4918H95.5869V42.8924C95.5869 43.4068 95.6438 43.8068 95.7574 44.0925C95.8711 44.3783 96.0985 44.5497 96.4396 44.664C96.7807 44.7783 97.2355 44.8355 97.8039 44.8355C97.9745 44.8355 98.5429 44.7783 99.3956 44.664V45.9784C98.6566 46.0927 97.9176 46.1499 97.1786 46.1499C96.2691 46.207 95.5869 46.0927 95.0753 45.8641Z" fill="#323152"/>
<path d="M100.135 35.2344H102.295L104.91 44.0924H105.023L107.525 35.2344H109.742L112.357 44.0924H112.47L114.972 35.2344H117.018L113.494 45.9783H111.106L108.548 37.2918L105.99 45.9783H103.602L100.135 35.2344Z" fill="#323152"/>
<path d="M120.031 45.9212C119.463 45.7498 119.065 45.4069 118.837 44.8926C118.61 44.3782 118.496 43.6924 118.496 42.7781C118.496 41.978 118.61 41.3494 118.837 40.8922C119.065 40.435 119.463 40.0921 120.031 39.9207C120.6 39.7492 121.396 39.6349 122.362 39.6349H125.545V37.9205C125.545 37.5204 125.489 37.2347 125.318 37.0061C125.147 36.7775 124.92 36.6632 124.522 36.5489C124.181 36.4346 123.613 36.4346 122.93 36.4346C121.85 36.4346 120.6 36.5489 119.235 36.7204V35.2345C120.713 35.1202 122.021 35.0631 123.215 35.0631C124.465 35.0631 125.375 35.1774 125.943 35.3488C126.512 35.5203 126.91 35.8632 127.137 36.3203C127.364 36.7775 127.478 37.4633 127.478 38.4348V46.0355H125.545V45.0069C125.375 45.8641 124.295 46.2641 122.305 46.2641C121.396 46.207 120.6 46.0927 120.031 45.9212ZM122.703 44.8926C123.442 44.8926 124.011 44.8354 124.522 44.7211C125.204 44.6068 125.489 44.2639 125.489 43.8067V40.8922H122.419C121.794 40.8922 121.339 40.9493 121.055 41.0065C120.77 41.1208 120.6 41.2922 120.486 41.578C120.372 41.8637 120.372 42.2637 120.372 42.8924C120.372 43.4067 120.429 43.8067 120.543 44.1496C120.657 44.4925 120.827 44.664 121.111 44.7783C121.396 44.8926 121.794 44.9497 122.305 44.9497H122.703V44.8926Z" fill="#323152"/>
<path d="M131.002 35.2346H132.878V37.0062C132.878 36.6633 133.049 36.3204 133.333 36.0347C133.617 35.7489 134.015 35.4632 134.47 35.2917C134.925 35.1203 135.38 35.006 135.834 35.006H136.801V36.7204H135.721C134.754 36.7204 134.072 36.8347 133.674 37.0633C133.276 37.2919 133.049 37.7491 133.049 38.3777V45.9213H131.059V35.2346H131.002Z" fill="#323152"/>
<path d="M138.336 42.8924V38.6635C138.336 37.3491 138.734 36.4347 139.473 35.8632C140.212 35.2917 141.405 35.006 143.111 35.006C144.703 35.006 145.839 35.2917 146.522 35.8061C147.204 36.3776 147.545 37.2919 147.545 38.6635V41.0637H140.382V42.6639C140.382 43.4068 140.666 43.9211 141.178 44.264C141.69 44.6069 142.486 44.7783 143.566 44.7783C144.589 44.7783 145.783 44.6069 147.147 44.264V45.807C145.783 46.0927 144.475 46.2642 143.281 46.2642C139.984 46.207 138.336 45.1212 138.336 42.8924ZM145.555 39.7493V38.0349C145.555 37.4062 145.385 36.949 144.987 36.7204C144.589 36.4919 143.907 36.3776 142.997 36.3776C142.088 36.3776 141.405 36.4919 141.008 36.7204C140.61 36.949 140.382 37.4062 140.382 38.0349V39.7493H145.555Z" fill="#323152"/>
<path opacity="0.74" d="M0.539551 23.6334C0.539551 23.6334 12.1931 10.7751 37.433 22.6619C38.0584 22.9477 39.8775 15.9756 40.048 15.4041C41.0144 11.6323 41.2418 7.91771 38.8542 4.43167C34.4202 -2.14036 24.0172 0.202712 18.162 3.17441C11.2267 6.66045 6.11053 12.9467 2.47234 19.7474C2.13126 20.376 1.79018 21.0618 1.4491 21.6904C1.16487 22.2619 0.937478 23.1762 0.539551 23.6334Z" fill="#07CBD5"/>
<path d="M42.4924 6.03175C42.4924 6.03175 47.7792 22.6047 24.9268 38.6633C24.3583 39.0634 29.4745 44.0924 29.8724 44.5496C32.6579 47.2927 35.7845 49.2929 39.8775 49.0071C47.7223 48.3785 50.9057 38.2061 51.3036 31.6341C51.7584 23.862 48.9161 16.2613 44.88 9.68923C44.482 9.0606 44.0841 8.43198 43.6862 7.86049C43.402 7.28901 42.7198 6.60323 42.4924 6.03175Z" fill="#34416C"/>
<path d="M36.5803 50.6644C36.5803 50.6644 19.6968 47.0069 17.1955 19.1187C17.1387 18.4329 10.2602 20.3188 9.69177 20.4902C5.93989 21.576 2.64278 23.2333 0.880531 27.0051C-2.53027 34.1486 4.68926 42.0351 10.2034 45.6354C16.6839 49.9215 24.6993 51.1788 32.3168 50.9502C33.0558 50.9502 33.7948 50.893 34.4769 50.8359C35.1023 50.8359 36.0118 50.5501 36.5803 50.6644Z" fill="#12919B"/>
</svg>
