<svg width="149" height="149" viewBox="0 0 149 149" fill="none" xmlns="http://www.w3.org/2000/svg">
<circle cx="74.5" cy="74.5" r="74.5" fill="#F5F6F8" fill-opacity="0.3"/>
<circle cx="74.5" cy="74.5" r="73.5" stroke="#34416C" stroke-opacity="0.85" stroke-width="2"/>
<path d="M46.5 51.9825L44.8838 50.3662L43.1163 52.1337L46.5 55.5175L52.3838 49.6337L50.6163 47.8662L46.5 51.9825Z" fill="#34416C"/>
<path d="M75.25 47.5H56.5V50H75.25V47.5Z" fill="#34416C"/>
<path d="M75.25 52.5H56.5V55H75.25V52.5Z" fill="#34416C"/>
<path d="M79 77.5H56.5V80H79V77.5Z" fill="#34416C"/>
<path d="M79 82.5H56.5V85H79V82.5Z" fill="#34416C"/>
<path d="M50.6163 76.6162L47.75 79.4825L44.8838 76.6162L43.1163 78.3837L45.9825 81.25L43.1163 84.1162L44.8838 85.8837L47.75 83.0175L50.6163 85.8837L52.3838 84.1162L49.5175 81.25L52.3838 78.3837L50.6163 76.6162Z" fill="#34416C"/>
<path d="M77.75 92.5H56.5V95H77.75V92.5Z" fill="#34416C"/>
<path d="M77.75 97.5H56.5V100H77.75V97.5Z" fill="#34416C"/>
<path d="M50.6163 91.6162L47.75 94.4825L44.8838 91.6162L43.1163 93.3837L45.9825 96.25L43.1163 99.1162L44.8838 100.884L47.75 98.0175L50.6163 100.884L52.3838 99.1162L49.5175 96.25L52.3838 93.3837L50.6163 91.6162Z" fill="#34416C"/>
<path d="M46.5 66.9825L44.8838 65.3662L43.1163 67.1337L46.5 70.5175L52.3838 64.6337L50.6163 62.8662L46.5 66.9825Z" fill="#34416C"/>
<path d="M84 62.5H56.5V65H84V62.5Z" fill="#34416C"/>
<path d="M84 67.5H56.5V70H84V67.5Z" fill="#34416C"/>
<path d="M100.25 80H94V78.375C95.2048 78.7395 96.4741 78.8398 97.7212 78.669C98.9683 78.4982 100.164 78.0604 101.226 77.3853C102.289 76.7103 103.193 75.814 103.877 74.7575C104.562 73.7011 105.01 72.5095 105.192 71.2639C105.374 70.0184 105.285 68.7482 104.931 67.5402C104.577 66.3323 103.967 65.2148 103.142 64.2642C102.317 63.3136 101.296 62.5523 100.15 62.0321C99.0037 61.5119 97.7587 61.2451 96.5 61.25H94V50.7325L80.7675 37.5H36.5V110H81.5V112.5H111.5V91.25C111.497 88.2673 110.31 85.4078 108.201 83.2987C106.092 81.1896 103.233 80.0033 100.25 80ZM96.5 85.955L94.7725 82.5H98.2275L96.5 85.955ZM98.9188 102.064L96.5 104.482L94.0812 102.064L96.5 86.3462L98.9188 102.064ZM96.5 76.25C94.843 76.248 93.2544 75.5889 92.0828 74.4172C90.9111 73.2456 90.252 71.657 90.25 70V68.75H94C95.5547 68.7554 97.0917 69.0814 98.5148 69.7074C99.9379 70.3335 101.217 71.2463 102.271 72.3887C101.798 73.5303 100.997 74.5062 99.9703 75.1933C98.9433 75.8805 97.7357 76.2482 96.5 76.25ZM102.685 69.355C100.231 67.3555 97.1652 66.2594 94 66.25H90.25V63.75H96.5C98.0414 63.7548 99.5263 64.3301 100.668 65.3652C101.811 66.4002 102.529 67.8216 102.685 69.355ZM81.5 41.7675L89.7325 50H81.5V41.7675ZM39 107.5V40H79V52.5H91.5V61.25H87.75V70C87.7509 71.4089 88.0924 72.7967 88.7453 74.0451C89.3982 75.2935 90.3433 76.3656 91.5 77.17V80.0737C88.7517 80.3838 86.2135 81.6943 84.3693 83.7554C82.5251 85.8166 81.5037 88.4842 81.5 91.25V107.5H39ZM109 110H84V91.25C84.0034 89.0608 84.8265 86.9523 86.3073 85.3399C87.788 83.7274 89.819 82.7281 92 82.5387L93.9575 86.4537L91.4188 102.936L96.5 108.018L101.581 102.936L99.0462 86.4537L101 82.5387C103.181 82.7281 105.212 83.7274 106.693 85.3399C108.173 86.9523 108.997 89.0608 109 91.25V110Z" fill="#34416C"/>
</svg>
